HIERARCHY
ROOT pelvis
{
  OFFSET 0 100 0
  CHANNELS 6 Xposition Yposition Zposition Zrotation Xrotation Yrotation
  JOINT pelvis_right_femur
  {
    OFFSET -10.78128 -3.44521 -0.5502486
    CHANNELS 3 Zrotation Xrotation Yrotation
    JOINT right_femur_tibia
    {
      OFFSET -0.8047443 -44.0398 -0.1307829
      CHANNELS 3 Zrotation Xrotation Yrotation
      JOINT right_tibia_foot
      {
        OFFSET 3.006224 -47.83518 -5
        CHANNELS 3 Zrotation Xrotation Yrotation
        End Site
        {
          OFFSET 0 -5 15
        }
      }
    }
  }
  JOINT pelvis_left_femur
  {
    OFFSET 10.78128 -3.44521 -0.5502486
    CHANNELS 3 Zrotation Xrotation Yrotation
    JOINT left_femur_tibia
    {
      OFFSET 0.8047443 -44.0398 -0.1307829
      CHANNELS 3 Zrotation Xrotation Yrotation
      JOINT left_tibia_foot
      {
        OFFSET -4.370144 -48.10324 -4.275266
        CHANNELS 3 Zrotation Xrotation Yrotation
        End Site
        {
          OFFSET 0 -5 15
        }
      }
    }
  }
  JOINT pelvis_spine1
  {
    OFFSET 0 6.468898 -3.129235
    CHANNELS 3 Zrotation Xrotation Yrotation
    JOINT spine1
    {
      OFFSET 0 23.15396 4.99043
      CHANNELS 3 Zrotation Xrotation Yrotation
      JOINT spine2
      {
        OFFSET 0 20.79997 -5.064912
        CHANNELS 3 Zrotation Xrotation Yrotation
        JOINT neck
        {
          OFFSET 0 14.38658 9.616178
          CHANNELS 3 Zrotation Xrotation Yrotation
          End Site
          {
            OFFSET 0 20 0
          }
        }
      }
      JOINT right_manubrium
      {
        OFFSET -5.722621 16.35077 3.967754
        CHANNELS 3 Zrotation Xrotation Yrotation
        JOINT right_clavicle
        {
          OFFSET -13.16364 1.694482 -4.693211
          CHANNELS 3 Zrotation Xrotation Yrotation
          JOINT right_humerus
          {
            OFFSET -28.5034 -0.3100689 -2.792744
            CHANNELS 3 Zrotation Xrotation Yrotation
            JOINT right_radius
            {
              OFFSET -25.15693 0.02248979 -1.271978
              CHANNELS 3 Zrotation Xrotation Yrotation
              End Site
              {
                OFFSET -15 0 0
              }
            }
          }
        }
      }
      JOINT left_manubrium
      {
        OFFSET 5.722621 16.35077 3.967754
        CHANNELS 3 Zrotation Xrotation Yrotation
        JOINT left_clavicle
        {
          OFFSET 13.16364 1.694482 -4.693211
          CHANNELS 3 Zrotation Xrotation Yrotation
          JOINT left_humerus
          {
            OFFSET 29.39168 -1.063119 -2.237045
            CHANNELS 3 Zrotation Xrotation Yrotation
            JOINT left_radius
            {
              OFFSET 24.59957 -0.9528479 0.9047498
              CHANNELS 3 Zrotation Xrotation Yrotation
              End Site
              {
                OFFSET 15 -0 -0
              }
            }
          }
        }
      }
    }
  }
}
MOTION
Frames: 7
Frame Time: 0.0416666666667
0 103.5113 0 0.3666525 -1.709857 0.01851233 3.765 -16.1653 8.334908 -0 37.27589 -0 -7.213932 -16.70451 -4.62807 -5.943667 11.85612 -22.75561 -0 5.163063 -0 6.335842 -16.78286 24.87739 -1.593743 -3.287319 5.742913 1.815821 10.59906 -6.232588 1.685362 21.57862 6.414213 3.600474 -22.32166 8.750159 6.582041 -19.39748 12.16406 80.96563 31.77932 -14.53947 -0 0 18.51226 -10.86841 11.26625 5.705706 8.291055 -20.74525 -0.1867476 -96.10631 20.64912 23.3595 0 0 -9.901297 16.71218 17.94248 -6.184763
0.1766651 103.3995 1.729867 0.2539123 -0.8511677 0.07117838 4.377072 -19.63501 8.650628 -0 36.00442 -0 -6.473821 -15.90982 -4.406554 -6.059722 12.8157 -22.76899 -0 5.382223 -0 6.121506 -18.19553 24.63266 -1.673508 -3.018361 5.657345 1.947977 10.39919 -6.400677 1.625502 21.45817 6.477303 3.525622 -22.605 8.784179 6.364586 -19.18174 12.01187 81.49556 32.59562 -14.8264 -0 0 17.74505 -10.59191 11.01617 5.732493 8.034825 -20.77756 -0.1535167 -95.1637 20.73619 22.56521 0 0 -11.35063 16.10781 17.09369 -5.378913
0.3630255 103.1605 3.641047 0.002180054 0.005225261 0.1843372 5.169979 -23.42578 8.420495 -0 33.29581 -0 -6.191898 -14.14715 -3.909598 -6.070275 13.62847 -22.24121 -0 5.863482 -0 5.891281 -19.64624 23.99346 -1.567718 -2.995792 5.457379 2.169585 10.35593 -6.775449 1.583339 21.18023 6.67888 3.553972 -23.39067 9.090801 6.276887 -18.99423 11.90829 82.68138 33.16818 -16.42053 -0 0 16.81968 -9.659851 10.71272 5.103633 8.16185 -21.1385 -0.1418519 -94.64769 20.85178 21.89107 0 0 -12.95304 16.30468 16.58188 -5.394467
0.5695495 102.7891 5.838781 -0.2479129 1.009022 0.3654938 5.874697 -26.98155 8.078998 -0 30.02105 -0 -5.847468 -12.06591 -3.285181 -6.09685 14.1353 -21.45845 -0 6.41565 -0 5.496258 -20.98759 23.10776 -1.549091 -2.8446 5.280372 2.362906 10.25037 -7.071688 1.527386 20.97487 6.819449 3.539084 -23.94845 9.260925 6.121851 -18.76942 11.7885 83.64648 33.81178 -17.47818 -0 0 15.88135 -9.08915 10.45701 4.827465 8.100436 -21.36613 -0.1493177 -93.87827 20.92022 21.08902 0 0 -14.51237 16.11436 15.88331 -5.009894
0.8004803 102.2769 8.453835 -0.5375484 2.102394 0.6204211 6.514866 -30.24973 7.561427 -0 26.13058 -0 -5.551353 -9.777652 -2.597616 -6.07464 14.40283 -20.37067 -0 7.32436 -0 4.806111 -22.10417 21.81102 -1.51211 -2.721498 5.091564 2.558438 10.17051 -7.375762 1.474138 20.76482 6.966313 3.538006 -24.53272 9.445171 5.985176 -18.5607 11.68422 84.6601 34.36252 -18.63145 -0 0 14.96273 -8.510493 10.21761 4.526843 8.071468 -21.61271 -0.1729709 -93.19297 20.98383 20.34613 0 0 -15.9874 15.98491 15.25219 -4.692255
1.054378 101.639 11.58643 -0.8542595 3.139952 0.945559 7.032567 -32.86994 6.908264 -0 22.11635 -0 -5.37141 -7.551783 -1.956829 -5.981867 14.49163 -19.09088 -0 8.782689 -0 3.817841 -22.78934 20.15971 -1.498637 -2.565811 4.898942 2.747095 10.08489 -7.659502 1.415266 20.57999 7.09561 3.529638 -25.04191 9.581656 5.838908 -18.33844 11.58585 85.6156 34.88809 -19.64752 -0 0 14.03485 -8.074263 10.01809 4.348761 7.990483 -21.82618 -0.2200366 -92.45083 21.02481 19.57061 0 0 -17.40638 15.74451 14.5888 -4.263696
1.321781 100.9285 15.30023 -1.203462 3.943132 1.327857 7.445366 -34.54413 6.193184 -0 18.55949 -0 -5.398876 -5.753179 -1.497216 -5.77561 14.50668 -17.75471 -0 11.1422 -0 2.519788 -22.82429 18.20407 -1.494793 -2.405346 4.707967 2.924384 10.0074 -7.921518 1.354976 20.41707 7.211949 3.52213 -25.49333 9.685907 5.700874 -18.12313 11.50156 86.50458 35.34778 -20.5656 -0 0 13.14906 -7.7454 9.858848 4.248032 7.888306 -22.01359 -0.2886038 -91.73661 21.05895 18.83366 0 0 -18.70266 15.44828 13.95552 -3.785962
